<mxfile host="app.diagrams.net" modified="2023-11-10T16:02:28.422Z" agent="Mozilla/5.0 (Macintosh; Intel Mac OS X 10_15_7) AppleWebKit/537.36 (KHTML, like Gecko) Chrome/118.0.0.0 Safari/537.36" etag="uXC7o-q1GSSE_3zqztAm" version="22.1.0" type="device">
  <diagram name="Страница — 1" id="CSwRObONcoVNUk6_TsAx">
    <mxGraphModel dx="1415" dy="2366" grid="1" gridSize="10" guides="1" tooltips="1" connect="1" arrows="1" fold="1" page="1" pageScale="1" pageWidth="827" pageHeight="1169" math="0" shadow="0">
      <root>
        <mxCell id="0" />
        <mxCell id="1" parent="0" />
        <mxCell id="wzz0exqY3XDibm87eAAy-1" value="Traveler" style="swimlane;fontStyle=1;align=center;verticalAlign=top;childLayout=stackLayout;horizontal=1;startSize=26;horizontalStack=0;resizeParent=1;resizeParentMax=0;resizeLast=0;collapsible=1;marginBottom=0;whiteSpace=wrap;html=1;" parent="1" vertex="1">
          <mxGeometry x="107" y="1200" width="200" height="88" as="geometry" />
        </mxCell>
        <mxCell id="wzz0exqY3XDibm87eAAy-2" value="- role: String = &#39;Traveler&#39;&lt;br&gt;+ user_id: Int&lt;br&gt;+ reservations_ids: List[int]" style="text;strokeColor=none;fillColor=none;align=left;verticalAlign=top;spacingLeft=4;spacingRight=4;overflow=hidden;rotatable=0;points=[[0,0.5],[1,0.5]];portConstraint=eastwest;whiteSpace=wrap;html=1;" parent="wzz0exqY3XDibm87eAAy-1" vertex="1">
          <mxGeometry y="26" width="200" height="54" as="geometry" />
        </mxCell>
        <mxCell id="wzz0exqY3XDibm87eAAy-3" value="" style="line;strokeWidth=1;fillColor=none;align=left;verticalAlign=middle;spacingTop=-1;spacingLeft=3;spacingRight=3;rotatable=0;labelPosition=right;points=[];portConstraint=eastwest;strokeColor=inherit;" parent="wzz0exqY3XDibm87eAAy-1" vertex="1">
          <mxGeometry y="80" width="200" height="8" as="geometry" />
        </mxCell>
        <mxCell id="wzz0exqY3XDibm87eAAy-5" value="Guide" style="swimlane;fontStyle=1;align=center;verticalAlign=top;childLayout=stackLayout;horizontal=1;startSize=26;horizontalStack=0;resizeParent=1;resizeParentMax=0;resizeLast=0;collapsible=1;marginBottom=0;whiteSpace=wrap;html=1;" parent="1" vertex="1">
          <mxGeometry x="407" y="1200" width="243" height="88" as="geometry" />
        </mxCell>
        <mxCell id="wzz0exqY3XDibm87eAAy-6" value="- role: String = &#39;Guide&#39;&lt;br&gt;+ user_id: Int&lt;br&gt;+ excursions_ids: List[int]" style="text;strokeColor=none;fillColor=none;align=left;verticalAlign=top;spacingLeft=4;spacingRight=4;overflow=hidden;rotatable=0;points=[[0,0.5],[1,0.5]];portConstraint=eastwest;whiteSpace=wrap;html=1;" parent="wzz0exqY3XDibm87eAAy-5" vertex="1">
          <mxGeometry y="26" width="243" height="54" as="geometry" />
        </mxCell>
        <mxCell id="wzz0exqY3XDibm87eAAy-7" value="" style="line;strokeWidth=1;fillColor=none;align=left;verticalAlign=middle;spacingTop=-1;spacingLeft=3;spacingRight=3;rotatable=0;labelPosition=right;points=[];portConstraint=eastwest;strokeColor=inherit;" parent="wzz0exqY3XDibm87eAAy-5" vertex="1">
          <mxGeometry y="80" width="243" height="8" as="geometry" />
        </mxCell>
        <mxCell id="wzz0exqY3XDibm87eAAy-19" value="Excursion" style="swimlane;fontStyle=1;align=center;verticalAlign=top;childLayout=stackLayout;horizontal=1;startSize=26;horizontalStack=0;resizeParent=1;resizeParentMax=0;resizeLast=0;collapsible=1;marginBottom=0;whiteSpace=wrap;html=1;" parent="1" vertex="1">
          <mxGeometry x="660" y="970" width="220" height="148" as="geometry" />
        </mxCell>
        <mxCell id="wzz0exqY3XDibm87eAAy-20" value="+ id: int&lt;br&gt;+ price: int&lt;br&gt;+ duration: timedelta&lt;br&gt;+ name: str&lt;br&gt;+ description: str&lt;br&gt;+ tour_date: datetime" style="text;strokeColor=none;fillColor=none;align=left;verticalAlign=top;spacingLeft=4;spacingRight=4;overflow=hidden;rotatable=0;points=[[0,0.5],[1,0.5]];portConstraint=eastwest;whiteSpace=wrap;html=1;" parent="wzz0exqY3XDibm87eAAy-19" vertex="1">
          <mxGeometry y="26" width="220" height="114" as="geometry" />
        </mxCell>
        <mxCell id="wzz0exqY3XDibm87eAAy-21" value="" style="line;strokeWidth=1;fillColor=none;align=left;verticalAlign=middle;spacingTop=-1;spacingLeft=3;spacingRight=3;rotatable=0;labelPosition=right;points=[];portConstraint=eastwest;strokeColor=inherit;" parent="wzz0exqY3XDibm87eAAy-19" vertex="1">
          <mxGeometry y="140" width="220" height="8" as="geometry" />
        </mxCell>
        <mxCell id="wzz0exqY3XDibm87eAAy-23" value="Reservation" style="swimlane;fontStyle=1;align=center;verticalAlign=top;childLayout=stackLayout;horizontal=1;startSize=26;horizontalStack=0;resizeParent=1;resizeParentMax=0;resizeLast=0;collapsible=1;marginBottom=0;whiteSpace=wrap;html=1;" parent="1" vertex="1">
          <mxGeometry x="1080" y="990" width="200" height="68" as="geometry" />
        </mxCell>
        <mxCell id="wzz0exqY3XDibm87eAAy-24" value="+ id: int&lt;br&gt;+ excursion_id: int" style="text;strokeColor=none;fillColor=none;align=left;verticalAlign=top;spacingLeft=4;spacingRight=4;overflow=hidden;rotatable=0;points=[[0,0.5],[1,0.5]];portConstraint=eastwest;whiteSpace=wrap;html=1;" parent="wzz0exqY3XDibm87eAAy-23" vertex="1">
          <mxGeometry y="26" width="200" height="34" as="geometry" />
        </mxCell>
        <mxCell id="wzz0exqY3XDibm87eAAy-25" value="" style="line;strokeWidth=1;fillColor=none;align=left;verticalAlign=middle;spacingTop=-1;spacingLeft=3;spacingRight=3;rotatable=0;labelPosition=right;points=[];portConstraint=eastwest;strokeColor=inherit;" parent="wzz0exqY3XDibm87eAAy-23" vertex="1">
          <mxGeometry y="60" width="200" height="8" as="geometry" />
        </mxCell>
        <mxCell id="wzz0exqY3XDibm87eAAy-33" value="User" style="swimlane;fontStyle=1;align=center;verticalAlign=top;childLayout=stackLayout;horizontal=1;startSize=40;horizontalStack=0;resizeParent=1;resizeParentMax=0;resizeLast=0;collapsible=1;marginBottom=0;whiteSpace=wrap;html=1;" parent="1" vertex="1">
          <mxGeometry x="260" y="950" width="194" height="140" as="geometry" />
        </mxCell>
        <mxCell id="wzz0exqY3XDibm87eAAy-34" value="+ username: str&lt;br&gt;+ email: str&lt;br&gt;+ birthdate: date" style="text;strokeColor=none;fillColor=none;align=left;verticalAlign=top;spacingLeft=4;spacingRight=4;overflow=hidden;rotatable=0;points=[[0,0.5],[1,0.5]];portConstraint=eastwest;whiteSpace=wrap;html=1;" parent="wzz0exqY3XDibm87eAAy-33" vertex="1">
          <mxGeometry y="40" width="194" height="60" as="geometry" />
        </mxCell>
        <mxCell id="wzz0exqY3XDibm87eAAy-35" value="" style="line;strokeWidth=1;fillColor=none;align=left;verticalAlign=middle;spacingTop=-1;spacingLeft=3;spacingRight=3;rotatable=0;labelPosition=right;points=[];portConstraint=eastwest;strokeColor=inherit;" parent="wzz0exqY3XDibm87eAAy-33" vertex="1">
          <mxGeometry y="100" width="194" height="8" as="geometry" />
        </mxCell>
        <mxCell id="wzz0exqY3XDibm87eAAy-36" value="+ get_role(user_id: Int): String" style="text;strokeColor=none;fillColor=none;align=left;verticalAlign=top;spacingLeft=4;spacingRight=4;overflow=hidden;rotatable=0;points=[[0,0.5],[1,0.5]];portConstraint=eastwest;whiteSpace=wrap;html=1;" parent="wzz0exqY3XDibm87eAAy-33" vertex="1">
          <mxGeometry y="108" width="194" height="32" as="geometry" />
        </mxCell>
        <mxCell id="wzz0exqY3XDibm87eAAy-38" value="&amp;lt;&amp;lt;control&amp;gt;&amp;gt;&lt;br&gt;UserController" style="swimlane;fontStyle=1;align=center;verticalAlign=top;childLayout=stackLayout;horizontal=1;startSize=40;horizontalStack=0;resizeParent=1;resizeParentMax=0;resizeLast=0;collapsible=1;marginBottom=0;whiteSpace=wrap;html=1;" parent="1" vertex="1">
          <mxGeometry x="260" y="471.5" width="194" height="156" as="geometry" />
        </mxCell>
        <mxCell id="wzz0exqY3XDibm87eAAy-39" value="- user_dal: UserDal" style="text;strokeColor=none;fillColor=none;align=left;verticalAlign=top;spacingLeft=4;spacingRight=4;overflow=hidden;rotatable=0;points=[[0,0.5],[1,0.5]];portConstraint=eastwest;whiteSpace=wrap;html=1;" parent="wzz0exqY3XDibm87eAAy-38" vertex="1">
          <mxGeometry y="40" width="194" height="30" as="geometry" />
        </mxCell>
        <mxCell id="wzz0exqY3XDibm87eAAy-40" value="" style="line;strokeWidth=1;fillColor=none;align=left;verticalAlign=middle;spacingTop=-1;spacingLeft=3;spacingRight=3;rotatable=0;labelPosition=right;points=[];portConstraint=eastwest;strokeColor=inherit;" parent="wzz0exqY3XDibm87eAAy-38" vertex="1">
          <mxGeometry y="70" width="194" height="8" as="geometry" />
        </mxCell>
        <mxCell id="wzz0exqY3XDibm87eAAy-41" value="+ get_user(user_id: int): User&lt;br&gt;+ save_user(user: User): None&lt;br&gt;+ patch_user(user: User): None&lt;br&gt;+ delete_user(user_id: int): None" style="text;strokeColor=none;fillColor=none;align=left;verticalAlign=top;spacingLeft=4;spacingRight=4;overflow=hidden;rotatable=0;points=[[0,0.5],[1,0.5]];portConstraint=eastwest;whiteSpace=wrap;html=1;" parent="wzz0exqY3XDibm87eAAy-38" vertex="1">
          <mxGeometry y="78" width="194" height="78" as="geometry" />
        </mxCell>
        <mxCell id="wzz0exqY3XDibm87eAAy-42" value="&amp;lt;&amp;lt;control&amp;gt;&amp;gt;&lt;br&gt;ExcursionController" style="swimlane;fontStyle=1;align=center;verticalAlign=top;childLayout=stackLayout;horizontal=1;startSize=40;horizontalStack=0;resizeParent=1;resizeParentMax=0;resizeLast=0;collapsible=1;marginBottom=0;whiteSpace=wrap;html=1;" parent="1" vertex="1">
          <mxGeometry x="600" y="471.5" width="354" height="156" as="geometry" />
        </mxCell>
        <mxCell id="wzz0exqY3XDibm87eAAy-43" value="- excursion_dal: ExcursionDAL" style="text;strokeColor=none;fillColor=none;align=left;verticalAlign=top;spacingLeft=4;spacingRight=4;overflow=hidden;rotatable=0;points=[[0,0.5],[1,0.5]];portConstraint=eastwest;whiteSpace=wrap;html=1;" parent="wzz0exqY3XDibm87eAAy-42" vertex="1">
          <mxGeometry y="40" width="354" height="30" as="geometry" />
        </mxCell>
        <mxCell id="wzz0exqY3XDibm87eAAy-44" value="" style="line;strokeWidth=1;fillColor=none;align=left;verticalAlign=middle;spacingTop=-1;spacingLeft=3;spacingRight=3;rotatable=0;labelPosition=right;points=[];portConstraint=eastwest;strokeColor=inherit;" parent="wzz0exqY3XDibm87eAAy-42" vertex="1">
          <mxGeometry y="70" width="354" height="8" as="geometry" />
        </mxCell>
        <mxCell id="wzz0exqY3XDibm87eAAy-45" value="+ add_excursion(user: User, excursion: Excursion): None&lt;br&gt;+ get_excursion(user: User): Excursion&lt;br&gt;+ patch_excursion(user: User, excursion: Excursion): None&lt;br&gt;+ delete_excursion(user: User, excursion_id: int): None" style="text;strokeColor=none;fillColor=none;align=left;verticalAlign=top;spacingLeft=4;spacingRight=4;overflow=hidden;rotatable=0;points=[[0,0.5],[1,0.5]];portConstraint=eastwest;whiteSpace=wrap;html=1;" parent="wzz0exqY3XDibm87eAAy-42" vertex="1">
          <mxGeometry y="78" width="354" height="78" as="geometry" />
        </mxCell>
        <mxCell id="wzz0exqY3XDibm87eAAy-46" value="&amp;lt;&amp;lt;control&amp;gt;&amp;gt;&lt;br&gt;ReservationController" style="swimlane;fontStyle=1;align=center;verticalAlign=top;childLayout=stackLayout;horizontal=1;startSize=40;horizontalStack=0;resizeParent=1;resizeParentMax=0;resizeLast=0;collapsible=1;marginBottom=0;whiteSpace=wrap;html=1;" parent="1" vertex="1">
          <mxGeometry x="1020" y="471.5" width="370" height="156" as="geometry" />
        </mxCell>
        <mxCell id="wzz0exqY3XDibm87eAAy-47" value="- reservation_dal: ReservationDAL" style="text;strokeColor=none;fillColor=none;align=left;verticalAlign=top;spacingLeft=4;spacingRight=4;overflow=hidden;rotatable=0;points=[[0,0.5],[1,0.5]];portConstraint=eastwest;whiteSpace=wrap;html=1;" parent="wzz0exqY3XDibm87eAAy-46" vertex="1">
          <mxGeometry y="40" width="370" height="30" as="geometry" />
        </mxCell>
        <mxCell id="wzz0exqY3XDibm87eAAy-48" value="" style="line;strokeWidth=1;fillColor=none;align=left;verticalAlign=middle;spacingTop=-1;spacingLeft=3;spacingRight=3;rotatable=0;labelPosition=right;points=[];portConstraint=eastwest;strokeColor=inherit;" parent="wzz0exqY3XDibm87eAAy-46" vertex="1">
          <mxGeometry y="70" width="370" height="8" as="geometry" />
        </mxCell>
        <mxCell id="wzz0exqY3XDibm87eAAy-49" value="&lt;div&gt;+ add_reservation(user: User, reservation: Reservation): None&lt;/div&gt;&lt;div&gt;+ get_reservation(user: User): Reservation&lt;/div&gt;&lt;div&gt;+ patch_reservation(user: User, reservation: Reservation): None&lt;/div&gt;&lt;div&gt;+ delete_reservation(user: User, reservation_id: int): None&lt;/div&gt;" style="text;strokeColor=none;fillColor=none;align=left;verticalAlign=top;spacingLeft=4;spacingRight=4;overflow=hidden;rotatable=0;points=[[0,0.5],[1,0.5]];portConstraint=eastwest;whiteSpace=wrap;html=1;" parent="wzz0exqY3XDibm87eAAy-46" vertex="1">
          <mxGeometry y="78" width="370" height="78" as="geometry" />
        </mxCell>
        <mxCell id="wzz0exqY3XDibm87eAAy-50" value="" style="endArrow=block;endSize=16;endFill=0;html=1;rounded=0;exitX=0.5;exitY=0;exitDx=0;exitDy=0;" parent="1" source="wzz0exqY3XDibm87eAAy-1" target="wzz0exqY3XDibm87eAAy-33" edge="1">
          <mxGeometry width="160" relative="1" as="geometry">
            <mxPoint x="45" y="1220" as="sourcePoint" />
            <mxPoint x="-20" y="1020" as="targetPoint" />
          </mxGeometry>
        </mxCell>
        <mxCell id="wzz0exqY3XDibm87eAAy-51" value="" style="endArrow=block;endSize=16;endFill=0;html=1;rounded=0;exitX=0.5;exitY=0;exitDx=0;exitDy=0;" parent="1" source="wzz0exqY3XDibm87eAAy-5" target="wzz0exqY3XDibm87eAAy-33" edge="1">
          <mxGeometry width="160" relative="1" as="geometry">
            <mxPoint x="580" y="1334" as="sourcePoint" />
            <mxPoint x="686" y="1110" as="targetPoint" />
          </mxGeometry>
        </mxCell>
        <mxCell id="wzz0exqY3XDibm87eAAy-52" value="1" style="endArrow=open;html=1;endSize=12;startArrow=diamondThin;startSize=14;startFill=1;edgeStyle=orthogonalEdgeStyle;align=left;verticalAlign=bottom;rounded=0;exitX=0.5;exitY=1;exitDx=0;exitDy=0;entryX=0.5;entryY=0;entryDx=0;entryDy=0;" parent="1" source="wzz0exqY3XDibm87eAAy-61" target="wzz0exqY3XDibm87eAAy-38" edge="1">
          <mxGeometry x="0.7955" y="-6" relative="1" as="geometry">
            <mxPoint x="635.9999999999995" y="230" as="sourcePoint" />
            <mxPoint x="585" y="702" as="targetPoint" />
            <mxPoint as="offset" />
            <Array as="points">
              <mxPoint x="553" y="230" />
              <mxPoint x="357" y="230" />
            </Array>
          </mxGeometry>
        </mxCell>
        <mxCell id="wzz0exqY3XDibm87eAAy-53" value="1" style="endArrow=open;html=1;endSize=12;startArrow=diamondThin;startSize=14;startFill=1;edgeStyle=orthogonalEdgeStyle;align=left;verticalAlign=bottom;rounded=0;exitX=0.527;exitY=0.998;exitDx=0;exitDy=0;exitPerimeter=0;" parent="1" source="wzz0exqY3XDibm87eAAy-66" edge="1">
          <mxGeometry x="0.7955" y="-6" relative="1" as="geometry">
            <mxPoint x="1003" y="78" as="sourcePoint" />
            <mxPoint x="870" y="470" as="targetPoint" />
            <mxPoint as="offset" />
            <Array as="points">
              <mxPoint x="1002" y="310" />
              <mxPoint x="870" y="310" />
            </Array>
          </mxGeometry>
        </mxCell>
        <mxCell id="wzz0exqY3XDibm87eAAy-54" value="1" style="endArrow=open;html=1;endSize=12;startArrow=diamondThin;startSize=14;startFill=1;edgeStyle=orthogonalEdgeStyle;align=left;verticalAlign=bottom;rounded=0;exitX=0.5;exitY=1;exitDx=0;exitDy=0;entryX=0.5;entryY=0;entryDx=0;entryDy=0;" parent="1" source="wzz0exqY3XDibm87eAAy-61" target="wzz0exqY3XDibm87eAAy-46" edge="1">
          <mxGeometry x="0.7955" y="-6" relative="1" as="geometry">
            <mxPoint x="636" y="231.5" as="sourcePoint" />
            <mxPoint x="860" y="471.5" as="targetPoint" />
            <mxPoint as="offset" />
            <Array as="points">
              <mxPoint x="543" y="231" />
              <mxPoint x="1187" y="231" />
            </Array>
          </mxGeometry>
        </mxCell>
        <mxCell id="wzz0exqY3XDibm87eAAy-55" value="UserDAL" style="swimlane;fontStyle=1;align=center;verticalAlign=top;childLayout=stackLayout;horizontal=1;startSize=35;horizontalStack=0;resizeParent=1;resizeParentMax=0;resizeLast=0;collapsible=1;marginBottom=0;whiteSpace=wrap;html=1;" parent="1" vertex="1">
          <mxGeometry x="240" y="740" width="240" height="140" as="geometry" />
        </mxCell>
        <mxCell id="wzz0exqY3XDibm87eAAy-56" value="+ db_session: SQLAlchemy.Session&amp;nbsp;&lt;br&gt;" style="text;strokeColor=none;fillColor=none;align=left;verticalAlign=top;spacingLeft=4;spacingRight=4;overflow=hidden;rotatable=0;points=[[0,0.5],[1,0.5]];portConstraint=eastwest;whiteSpace=wrap;html=1;" parent="wzz0exqY3XDibm87eAAy-55" vertex="1">
          <mxGeometry y="35" width="240" height="26" as="geometry" />
        </mxCell>
        <mxCell id="wzz0exqY3XDibm87eAAy-57" value="" style="line;strokeWidth=1;fillColor=none;align=left;verticalAlign=middle;spacingTop=-1;spacingLeft=3;spacingRight=3;rotatable=0;labelPosition=right;points=[];portConstraint=eastwest;strokeColor=inherit;" parent="wzz0exqY3XDibm87eAAy-55" vertex="1">
          <mxGeometry y="61" width="240" height="8" as="geometry" />
        </mxCell>
        <mxCell id="wzz0exqY3XDibm87eAAy-58" value="+ get(user_id: int): User&lt;br&gt;+ save(user: User): None&lt;br&gt;+ patch(user: User): None&lt;br&gt;+ delete(user_ud: int): None" style="text;strokeColor=none;fillColor=none;align=left;verticalAlign=top;spacingLeft=4;spacingRight=4;overflow=hidden;rotatable=0;points=[[0,0.5],[1,0.5]];portConstraint=eastwest;whiteSpace=wrap;html=1;" parent="wzz0exqY3XDibm87eAAy-55" vertex="1">
          <mxGeometry y="69" width="240" height="71" as="geometry" />
        </mxCell>
        <mxCell id="wzz0exqY3XDibm87eAAy-59" value="1" style="endArrow=open;html=1;endSize=12;startArrow=diamondThin;startSize=14;startFill=1;edgeStyle=orthogonalEdgeStyle;align=left;verticalAlign=bottom;rounded=0;exitX=1;exitY=0.5;exitDx=0;exitDy=0;entryX=0.5;entryY=0;entryDx=0;entryDy=0;" parent="1" source="wzz0exqY3XDibm87eAAy-39" target="wzz0exqY3XDibm87eAAy-55" edge="1">
          <mxGeometry x="0.7955" y="-6" relative="1" as="geometry">
            <mxPoint x="454" y="590" as="sourcePoint" />
            <mxPoint x="290" y="803.5" as="targetPoint" />
            <mxPoint as="offset" />
            <Array as="points">
              <mxPoint x="490" y="526" />
              <mxPoint x="490" y="681" />
              <mxPoint x="360" y="681" />
            </Array>
          </mxGeometry>
        </mxCell>
        <mxCell id="wzz0exqY3XDibm87eAAy-60" value="" style="endArrow=open;endSize=12;dashed=1;html=1;rounded=0;entryX=0.5;entryY=0;entryDx=0;entryDy=0;exitX=0.488;exitY=1.015;exitDx=0;exitDy=0;exitPerimeter=0;" parent="1" source="wzz0exqY3XDibm87eAAy-58" target="wzz0exqY3XDibm87eAAy-33" edge="1">
          <mxGeometry width="160" relative="1" as="geometry">
            <mxPoint x="660" y="912" as="sourcePoint" />
            <mxPoint x="480" y="910" as="targetPoint" />
          </mxGeometry>
        </mxCell>
        <mxCell id="wzz0exqY3XDibm87eAAy-61" value="&amp;lt;&amp;lt;UI&amp;gt;&amp;gt;&lt;br&gt;TravelerInterface" style="swimlane;fontStyle=1;align=center;verticalAlign=top;childLayout=stackLayout;horizontal=1;startSize=40;horizontalStack=0;resizeParent=1;resizeParentMax=0;resizeLast=0;collapsible=1;marginBottom=0;whiteSpace=wrap;html=1;" parent="1" vertex="1">
          <mxGeometry x="380" y="-90" width="346" height="160" as="geometry" />
        </mxCell>
        <mxCell id="wzz0exqY3XDibm87eAAy-88" value="- user: User&lt;br&gt;- user_controller: UserController&amp;nbsp;&lt;br style=&quot;border-color: var(--border-color);&quot;&gt;- reservation_controller: ReservationController" style="text;strokeColor=none;fillColor=none;align=left;verticalAlign=top;spacingLeft=4;spacingRight=4;overflow=hidden;rotatable=0;points=[[0,0.5],[1,0.5]];portConstraint=eastwest;whiteSpace=wrap;html=1;" parent="wzz0exqY3XDibm87eAAy-61" vertex="1">
          <mxGeometry y="40" width="346" height="60" as="geometry" />
        </mxCell>
        <mxCell id="wzz0exqY3XDibm87eAAy-63" value="" style="line;strokeWidth=1;fillColor=none;align=left;verticalAlign=middle;spacingTop=-1;spacingLeft=3;spacingRight=3;rotatable=0;labelPosition=right;points=[];portConstraint=eastwest;strokeColor=inherit;" parent="wzz0exqY3XDibm87eAAy-61" vertex="1">
          <mxGeometry y="100" width="346" height="8" as="geometry" />
        </mxCell>
        <mxCell id="wzz0exqY3XDibm87eAAy-62" value="+ start_session(): None&lt;br style=&quot;border-color: var(--border-color); background-color: rgb(255, 255, 255);&quot;&gt;&lt;span style=&quot;background-color: rgb(255, 255, 255);&quot;&gt;+ end_session(): None&lt;/span&gt;" style="text;strokeColor=none;fillColor=none;align=left;verticalAlign=top;spacingLeft=4;spacingRight=4;overflow=hidden;rotatable=0;points=[[0,0.5],[1,0.5]];portConstraint=eastwest;whiteSpace=wrap;html=1;" parent="wzz0exqY3XDibm87eAAy-61" vertex="1">
          <mxGeometry y="108" width="346" height="52" as="geometry" />
        </mxCell>
        <mxCell id="wzz0exqY3XDibm87eAAy-65" value="&amp;lt;&amp;lt;UI&amp;gt;&amp;gt;&lt;br&gt;GuideInterface" style="swimlane;fontStyle=1;align=center;verticalAlign=top;childLayout=stackLayout;horizontal=1;startSize=40;horizontalStack=0;resizeParent=1;resizeParentMax=0;resizeLast=0;collapsible=1;marginBottom=0;whiteSpace=wrap;html=1;" parent="1" vertex="1">
          <mxGeometry x="820" y="-90" width="346" height="160" as="geometry" />
        </mxCell>
        <mxCell id="wzz0exqY3XDibm87eAAy-87" value="- user: User&lt;br&gt;- user_controller: UserController&amp;nbsp;&lt;br style=&quot;border-color: var(--border-color);&quot;&gt;- excursion_controller: ExcursionController" style="text;strokeColor=none;fillColor=none;align=left;verticalAlign=top;spacingLeft=4;spacingRight=4;overflow=hidden;rotatable=0;points=[[0,0.5],[1,0.5]];portConstraint=eastwest;whiteSpace=wrap;html=1;" parent="wzz0exqY3XDibm87eAAy-65" vertex="1">
          <mxGeometry y="40" width="346" height="60" as="geometry" />
        </mxCell>
        <mxCell id="wzz0exqY3XDibm87eAAy-67" value="" style="line;strokeWidth=1;fillColor=none;align=left;verticalAlign=middle;spacingTop=-1;spacingLeft=3;spacingRight=3;rotatable=0;labelPosition=right;points=[];portConstraint=eastwest;strokeColor=inherit;" parent="wzz0exqY3XDibm87eAAy-65" vertex="1">
          <mxGeometry y="100" width="346" height="8" as="geometry" />
        </mxCell>
        <mxCell id="wzz0exqY3XDibm87eAAy-66" value="+ start_session(): None&lt;br style=&quot;border-color: var(--border-color); background-color: rgb(255, 255, 255);&quot;&gt;+ end_session(): None" style="text;strokeColor=none;fillColor=none;align=left;verticalAlign=top;spacingLeft=4;spacingRight=4;overflow=hidden;rotatable=0;points=[[0,0.5],[1,0.5]];portConstraint=eastwest;whiteSpace=wrap;html=1;" parent="wzz0exqY3XDibm87eAAy-65" vertex="1">
          <mxGeometry y="108" width="346" height="52" as="geometry" />
        </mxCell>
        <mxCell id="wzz0exqY3XDibm87eAAy-69" value="&amp;lt;&amp;lt;UI&amp;gt;&amp;gt;&lt;br&gt;AutorizationInterface" style="swimlane;fontStyle=1;align=center;verticalAlign=top;childLayout=stackLayout;horizontal=1;startSize=40;horizontalStack=0;resizeParent=1;resizeParentMax=0;resizeLast=0;collapsible=1;marginBottom=0;whiteSpace=wrap;html=1;" parent="1" vertex="1">
          <mxGeometry x="1230" y="-90" width="346" height="160" as="geometry" />
        </mxCell>
        <mxCell id="wzz0exqY3XDibm87eAAy-70" value="- authorization_controller: AuthorizationnController" style="text;strokeColor=none;fillColor=none;align=left;verticalAlign=top;spacingLeft=4;spacingRight=4;overflow=hidden;rotatable=0;points=[[0,0.5],[1,0.5]];portConstraint=eastwest;whiteSpace=wrap;html=1;" parent="wzz0exqY3XDibm87eAAy-69" vertex="1">
          <mxGeometry y="40" width="346" height="50" as="geometry" />
        </mxCell>
        <mxCell id="wzz0exqY3XDibm87eAAy-71" value="" style="line;strokeWidth=1;fillColor=none;align=left;verticalAlign=middle;spacingTop=-1;spacingLeft=3;spacingRight=3;rotatable=0;labelPosition=right;points=[];portConstraint=eastwest;strokeColor=inherit;" parent="wzz0exqY3XDibm87eAAy-69" vertex="1">
          <mxGeometry y="90" width="346" height="8" as="geometry" />
        </mxCell>
        <mxCell id="wzz0exqY3XDibm87eAAy-111" value="+ start_session(): None&lt;br style=&quot;border-color: var(--border-color); background-color: rgb(255, 255, 255);&quot;&gt;+ end_session(): None" style="text;strokeColor=none;fillColor=none;align=left;verticalAlign=top;spacingLeft=4;spacingRight=4;overflow=hidden;rotatable=0;points=[[0,0.5],[1,0.5]];portConstraint=eastwest;whiteSpace=wrap;html=1;" parent="wzz0exqY3XDibm87eAAy-69" vertex="1">
          <mxGeometry y="98" width="346" height="62" as="geometry" />
        </mxCell>
        <mxCell id="wzz0exqY3XDibm87eAAy-73" value="&amp;lt;&amp;lt;control&amp;gt;&amp;gt;&lt;br&gt;AuthorizationController" style="swimlane;fontStyle=1;align=center;verticalAlign=top;childLayout=stackLayout;horizontal=1;startSize=40;horizontalStack=0;resizeParent=1;resizeParentMax=0;resizeLast=0;collapsible=1;marginBottom=0;whiteSpace=wrap;html=1;" parent="1" vertex="1">
          <mxGeometry x="1500" y="470" width="310" height="186" as="geometry" />
        </mxCell>
        <mxCell id="wzz0exqY3XDibm87eAAy-74" value="+ username: str&lt;br&gt;+ email: str&lt;br&gt;+ birthdate: date" style="text;strokeColor=none;fillColor=none;align=left;verticalAlign=top;spacingLeft=4;spacingRight=4;overflow=hidden;rotatable=0;points=[[0,0.5],[1,0.5]];portConstraint=eastwest;whiteSpace=wrap;html=1;" parent="wzz0exqY3XDibm87eAAy-73" vertex="1">
          <mxGeometry y="40" width="310" height="60" as="geometry" />
        </mxCell>
        <mxCell id="wzz0exqY3XDibm87eAAy-75" value="" style="line;strokeWidth=1;fillColor=none;align=left;verticalAlign=middle;spacingTop=-1;spacingLeft=3;spacingRight=3;rotatable=0;labelPosition=right;points=[];portConstraint=eastwest;strokeColor=inherit;" parent="wzz0exqY3XDibm87eAAy-73" vertex="1">
          <mxGeometry y="100" width="310" height="8" as="geometry" />
        </mxCell>
        <mxCell id="wzz0exqY3XDibm87eAAy-76" value="+ login(loginInfo: UserLoginDTO): str&lt;br&gt;+ register(registerInfo: UserRegisterDTO): None&amp;nbsp;" style="text;strokeColor=none;fillColor=none;align=left;verticalAlign=top;spacingLeft=4;spacingRight=4;overflow=hidden;rotatable=0;points=[[0,0.5],[1,0.5]];portConstraint=eastwest;whiteSpace=wrap;html=1;" parent="wzz0exqY3XDibm87eAAy-73" vertex="1">
          <mxGeometry y="108" width="310" height="78" as="geometry" />
        </mxCell>
        <mxCell id="wzz0exqY3XDibm87eAAy-77" value="1" style="endArrow=open;html=1;endSize=12;startArrow=diamondThin;startSize=14;startFill=1;edgeStyle=orthogonalEdgeStyle;align=left;verticalAlign=bottom;rounded=0;exitX=0.47;exitY=1.108;exitDx=0;exitDy=0;exitPerimeter=0;" parent="1" source="wzz0exqY3XDibm87eAAy-66" edge="1">
          <mxGeometry x="0.7955" y="-6" relative="1" as="geometry">
            <mxPoint x="985.422" y="78.0039999999999" as="sourcePoint" />
            <mxPoint x="390" y="470" as="targetPoint" />
            <mxPoint as="offset" />
            <Array as="points">
              <mxPoint x="983" y="153" />
              <mxPoint x="983" y="283" />
              <mxPoint x="390" y="283" />
            </Array>
          </mxGeometry>
        </mxCell>
        <mxCell id="wzz0exqY3XDibm87eAAy-78" value="1" style="endArrow=open;html=1;endSize=12;startArrow=diamondThin;startSize=14;startFill=1;edgeStyle=orthogonalEdgeStyle;align=left;verticalAlign=bottom;rounded=0;exitX=0.5;exitY=1;exitDx=0;exitDy=0;entryX=0.5;entryY=0;entryDx=0;entryDy=0;" parent="1" source="wzz0exqY3XDibm87eAAy-69" target="wzz0exqY3XDibm87eAAy-73" edge="1">
          <mxGeometry x="0.7955" y="-6" relative="1" as="geometry">
            <mxPoint x="1765" y="-120" as="sourcePoint" />
            <mxPoint x="1140" y="495" as="targetPoint" />
            <mxPoint as="offset" />
            <Array as="points">
              <mxPoint x="1403" y="255" />
              <mxPoint x="1655" y="255" />
            </Array>
          </mxGeometry>
        </mxCell>
        <mxCell id="wzz0exqY3XDibm87eAAy-79" value="ExcursionDAL" style="swimlane;fontStyle=1;align=center;verticalAlign=top;childLayout=stackLayout;horizontal=1;startSize=35;horizontalStack=0;resizeParent=1;resizeParentMax=0;resizeLast=0;collapsible=1;marginBottom=0;whiteSpace=wrap;html=1;" parent="1" vertex="1">
          <mxGeometry x="600" y="740" width="350" height="140" as="geometry" />
        </mxCell>
        <mxCell id="wzz0exqY3XDibm87eAAy-80" value="+ db_session: SQLAlchemy.Session&amp;nbsp;&lt;br&gt;" style="text;strokeColor=none;fillColor=none;align=left;verticalAlign=top;spacingLeft=4;spacingRight=4;overflow=hidden;rotatable=0;points=[[0,0.5],[1,0.5]];portConstraint=eastwest;whiteSpace=wrap;html=1;" parent="wzz0exqY3XDibm87eAAy-79" vertex="1">
          <mxGeometry y="35" width="350" height="26" as="geometry" />
        </mxCell>
        <mxCell id="wzz0exqY3XDibm87eAAy-81" value="" style="line;strokeWidth=1;fillColor=none;align=left;verticalAlign=middle;spacingTop=-1;spacingLeft=3;spacingRight=3;rotatable=0;labelPosition=right;points=[];portConstraint=eastwest;strokeColor=inherit;" parent="wzz0exqY3XDibm87eAAy-79" vertex="1">
          <mxGeometry y="61" width="350" height="8" as="geometry" />
        </mxCell>
        <mxCell id="wzz0exqY3XDibm87eAAy-82" value="+ add(excursion: Excursion): User&lt;br&gt;+ get(): User&lt;br&gt;+ patch(excursion: Excursion): None&lt;br&gt;+ delete(excursion_id: int): None" style="text;strokeColor=none;fillColor=none;align=left;verticalAlign=top;spacingLeft=4;spacingRight=4;overflow=hidden;rotatable=0;points=[[0,0.5],[1,0.5]];portConstraint=eastwest;whiteSpace=wrap;html=1;" parent="wzz0exqY3XDibm87eAAy-79" vertex="1">
          <mxGeometry y="69" width="350" height="71" as="geometry" />
        </mxCell>
        <mxCell id="wzz0exqY3XDibm87eAAy-83" value="ReservationDAL" style="swimlane;fontStyle=1;align=center;verticalAlign=top;childLayout=stackLayout;horizontal=1;startSize=35;horizontalStack=0;resizeParent=1;resizeParentMax=0;resizeLast=0;collapsible=1;marginBottom=0;whiteSpace=wrap;html=1;" parent="1" vertex="1">
          <mxGeometry x="1030" y="740" width="350" height="140" as="geometry" />
        </mxCell>
        <mxCell id="wzz0exqY3XDibm87eAAy-84" value="+ db_session: SQLAlchemy.Session&amp;nbsp;&lt;br&gt;" style="text;strokeColor=none;fillColor=none;align=left;verticalAlign=top;spacingLeft=4;spacingRight=4;overflow=hidden;rotatable=0;points=[[0,0.5],[1,0.5]];portConstraint=eastwest;whiteSpace=wrap;html=1;" parent="wzz0exqY3XDibm87eAAy-83" vertex="1">
          <mxGeometry y="35" width="350" height="26" as="geometry" />
        </mxCell>
        <mxCell id="wzz0exqY3XDibm87eAAy-85" value="" style="line;strokeWidth=1;fillColor=none;align=left;verticalAlign=middle;spacingTop=-1;spacingLeft=3;spacingRight=3;rotatable=0;labelPosition=right;points=[];portConstraint=eastwest;strokeColor=inherit;" parent="wzz0exqY3XDibm87eAAy-83" vertex="1">
          <mxGeometry y="61" width="350" height="8" as="geometry" />
        </mxCell>
        <mxCell id="wzz0exqY3XDibm87eAAy-86" value="+ add(reservation: Reservation): User&lt;br&gt;+ get(): User&lt;br&gt;+ patch(reservation: Reservation): None&lt;br&gt;+ delete(reservation_id: int): None" style="text;strokeColor=none;fillColor=none;align=left;verticalAlign=top;spacingLeft=4;spacingRight=4;overflow=hidden;rotatable=0;points=[[0,0.5],[1,0.5]];portConstraint=eastwest;whiteSpace=wrap;html=1;" parent="wzz0exqY3XDibm87eAAy-83" vertex="1">
          <mxGeometry y="69" width="350" height="71" as="geometry" />
        </mxCell>
        <mxCell id="wzz0exqY3XDibm87eAAy-90" value="1" style="endArrow=open;html=1;endSize=12;startArrow=diamondThin;startSize=14;startFill=1;edgeStyle=orthogonalEdgeStyle;align=left;verticalAlign=bottom;rounded=0;exitX=0.998;exitY=0.895;exitDx=0;exitDy=0;entryX=0.5;entryY=0;entryDx=0;entryDy=0;exitPerimeter=0;" parent="1" source="wzz0exqY3XDibm87eAAy-43" target="wzz0exqY3XDibm87eAAy-79" edge="1">
          <mxGeometry x="0.7955" y="-6" relative="1" as="geometry">
            <mxPoint x="974" y="537" as="sourcePoint" />
            <mxPoint x="880" y="750" as="targetPoint" />
            <mxPoint as="offset" />
            <Array as="points">
              <mxPoint x="970" y="538" />
              <mxPoint x="970" y="540" />
              <mxPoint x="990" y="540" />
              <mxPoint x="990" y="691" />
              <mxPoint x="775" y="691" />
            </Array>
          </mxGeometry>
        </mxCell>
        <mxCell id="wzz0exqY3XDibm87eAAy-94" value="" style="endArrow=open;endSize=12;dashed=1;html=1;rounded=0;entryX=0.5;entryY=0;entryDx=0;entryDy=0;exitX=0.488;exitY=1.015;exitDx=0;exitDy=0;exitPerimeter=0;" parent="1" target="wzz0exqY3XDibm87eAAy-19" edge="1">
          <mxGeometry width="160" relative="1" as="geometry">
            <mxPoint x="769.71" y="881" as="sourcePoint" />
            <mxPoint x="769.71" y="950" as="targetPoint" />
          </mxGeometry>
        </mxCell>
        <mxCell id="wzz0exqY3XDibm87eAAy-95" value="" style="endArrow=open;endSize=12;dashed=1;html=1;rounded=0;entryX=0.5;entryY=0;entryDx=0;entryDy=0;exitX=0.431;exitY=1.03;exitDx=0;exitDy=0;exitPerimeter=0;" parent="1" source="wzz0exqY3XDibm87eAAy-86" target="wzz0exqY3XDibm87eAAy-23" edge="1">
          <mxGeometry width="160" relative="1" as="geometry">
            <mxPoint x="1166" y="901" as="sourcePoint" />
            <mxPoint x="1166" y="970" as="targetPoint" />
          </mxGeometry>
        </mxCell>
        <mxCell id="wzz0exqY3XDibm87eAAy-96" value="1" style="endArrow=open;html=1;endSize=12;startArrow=diamondThin;startSize=14;startFill=1;edgeStyle=orthogonalEdgeStyle;align=left;verticalAlign=bottom;rounded=0;exitX=0.998;exitY=0.895;exitDx=0;exitDy=0;entryX=0.5;entryY=0;entryDx=0;entryDy=0;exitPerimeter=0;" parent="1" edge="1">
          <mxGeometry x="0.7955" y="-6" relative="1" as="geometry">
            <mxPoint x="1388" y="538" as="sourcePoint" />
            <mxPoint x="1210" y="740" as="targetPoint" />
            <mxPoint as="offset" />
            <Array as="points">
              <mxPoint x="1405" y="538" />
              <mxPoint x="1405" y="540" />
              <mxPoint x="1425" y="540" />
              <mxPoint x="1425" y="691" />
              <mxPoint x="1210" y="691" />
            </Array>
          </mxGeometry>
        </mxCell>
        <mxCell id="wzz0exqY3XDibm87eAAy-98" value="&amp;lt;&amp;lt;main&amp;gt;&amp;gt;&lt;br&gt;&amp;lt;&amp;lt;UI&amp;gt;&amp;gt;&lt;br&gt;System" style="swimlane;fontStyle=1;align=center;verticalAlign=top;childLayout=stackLayout;horizontal=1;startSize=50;horizontalStack=0;resizeParent=1;resizeParentMax=0;resizeLast=0;collapsible=1;marginBottom=0;whiteSpace=wrap;html=1;" parent="1" vertex="1">
          <mxGeometry x="920" y="-460" width="160" height="84" as="geometry" />
        </mxCell>
        <mxCell id="wzz0exqY3XDibm87eAAy-99" value="- session: Session" style="text;strokeColor=none;fillColor=none;align=left;verticalAlign=top;spacingLeft=4;spacingRight=4;overflow=hidden;rotatable=0;points=[[0,0.5],[1,0.5]];portConstraint=eastwest;whiteSpace=wrap;html=1;" parent="wzz0exqY3XDibm87eAAy-98" vertex="1">
          <mxGeometry y="50" width="160" height="26" as="geometry" />
        </mxCell>
        <mxCell id="wzz0exqY3XDibm87eAAy-100" value="" style="line;strokeWidth=1;fillColor=none;align=left;verticalAlign=middle;spacingTop=-1;spacingLeft=3;spacingRight=3;rotatable=0;labelPosition=right;points=[];portConstraint=eastwest;strokeColor=inherit;" parent="wzz0exqY3XDibm87eAAy-98" vertex="1">
          <mxGeometry y="76" width="160" height="8" as="geometry" />
        </mxCell>
        <mxCell id="wzz0exqY3XDibm87eAAy-102" value="&amp;lt;&amp;lt;interface&amp;gt;&amp;gt;&lt;br&gt;Session" style="swimlane;fontStyle=1;align=center;verticalAlign=top;childLayout=stackLayout;horizontal=1;startSize=44;horizontalStack=0;resizeParent=1;resizeParentMax=0;resizeLast=0;collapsible=1;marginBottom=0;whiteSpace=wrap;html=1;" parent="1" vertex="1">
          <mxGeometry x="913" y="-260" width="160" height="90" as="geometry" />
        </mxCell>
        <mxCell id="wzz0exqY3XDibm87eAAy-103" value="" style="line;strokeWidth=1;fillColor=none;align=left;verticalAlign=middle;spacingTop=-1;spacingLeft=3;spacingRight=3;rotatable=0;labelPosition=right;points=[];portConstraint=eastwest;strokeColor=inherit;" parent="wzz0exqY3XDibm87eAAy-102" vertex="1">
          <mxGeometry y="44" width="160" height="8" as="geometry" />
        </mxCell>
        <mxCell id="wzz0exqY3XDibm87eAAy-104" value="+ start_session(): None&lt;br&gt;+ end_session(): None" style="text;strokeColor=none;fillColor=none;align=left;verticalAlign=top;spacingLeft=4;spacingRight=4;overflow=hidden;rotatable=0;points=[[0,0.5],[1,0.5]];portConstraint=eastwest;whiteSpace=wrap;html=1;" parent="wzz0exqY3XDibm87eAAy-102" vertex="1">
          <mxGeometry y="52" width="160" height="38" as="geometry" />
        </mxCell>
        <mxCell id="wzz0exqY3XDibm87eAAy-105" value="" style="endArrow=block;dashed=1;endFill=0;endSize=12;html=1;rounded=0;" parent="1" source="wzz0exqY3XDibm87eAAy-61" target="wzz0exqY3XDibm87eAAy-102" edge="1">
          <mxGeometry width="160" relative="1" as="geometry">
            <mxPoint x="900" y="-89" as="sourcePoint" />
            <mxPoint x="470" y="-90" as="targetPoint" />
          </mxGeometry>
        </mxCell>
        <mxCell id="wzz0exqY3XDibm87eAAy-106" value="" style="endArrow=block;dashed=1;endFill=0;endSize=12;html=1;rounded=0;" parent="1" source="wzz0exqY3XDibm87eAAy-65" target="wzz0exqY3XDibm87eAAy-102" edge="1">
          <mxGeometry width="160" relative="1" as="geometry">
            <mxPoint x="520" y="-329" as="sourcePoint" />
            <mxPoint x="90" y="-330" as="targetPoint" />
          </mxGeometry>
        </mxCell>
        <mxCell id="wzz0exqY3XDibm87eAAy-107" value="" style="endArrow=block;dashed=1;endFill=0;endSize=12;html=1;rounded=0;" parent="1" source="wzz0exqY3XDibm87eAAy-69" target="wzz0exqY3XDibm87eAAy-102" edge="1">
          <mxGeometry width="160" relative="1" as="geometry">
            <mxPoint x="280" y="-315" as="sourcePoint" />
            <mxPoint x="-150" y="-316" as="targetPoint" />
          </mxGeometry>
        </mxCell>
        <mxCell id="wzz0exqY3XDibm87eAAy-110" value="1" style="endArrow=open;html=1;endSize=12;startArrow=diamondThin;startSize=14;startFill=1;edgeStyle=orthogonalEdgeStyle;align=left;verticalAlign=bottom;rounded=0;" parent="1" source="wzz0exqY3XDibm87eAAy-98" target="wzz0exqY3XDibm87eAAy-102" edge="1">
          <mxGeometry x="0.7955" y="-6" relative="1" as="geometry">
            <mxPoint x="393" y="-460" as="sourcePoint" />
            <mxPoint x="260" y="-68" as="targetPoint" />
            <mxPoint as="offset" />
            <Array as="points">
              <mxPoint x="993" y="-330" />
              <mxPoint x="993" y="-330" />
            </Array>
          </mxGeometry>
        </mxCell>
        <mxCell id="wzz0exqY3XDibm87eAAy-112" value="&lt;h1&gt;Базовая диаграмма классов&lt;/h1&gt;&lt;p&gt;&lt;br&gt;&lt;/p&gt;" style="text;html=1;strokeColor=none;fillColor=none;spacing=5;spacingTop=-20;whiteSpace=wrap;overflow=hidden;rounded=0;movable=1;resizable=1;rotatable=1;deletable=1;editable=1;locked=0;connectable=1;" parent="1" vertex="1">
          <mxGeometry x="350" y="-490" width="370" height="40" as="geometry" />
        </mxCell>
        <mxCell id="wzz0exqY3XDibm87eAAy-113" value="c" style="rounded=0;whiteSpace=wrap;html=1;" parent="1" vertex="1">
          <mxGeometry x="1970" y="-1030" width="1270" height="1000" as="geometry" />
        </mxCell>
        <mxCell id="wzz0exqY3XDibm87eAAy-114" value="&lt;h1&gt;Диаграмма классов направления развития&amp;nbsp;&lt;/h1&gt;&lt;p&gt;&lt;br&gt;&lt;/p&gt;" style="text;html=1;strokeColor=none;fillColor=none;spacing=5;spacingTop=-20;whiteSpace=wrap;overflow=hidden;rounded=0;movable=1;resizable=1;rotatable=1;deletable=1;editable=1;locked=0;connectable=1;" parent="1" vertex="1">
          <mxGeometry x="1990" y="-1010" width="559" height="40" as="geometry" />
        </mxCell>
        <mxCell id="wzz0exqY3XDibm87eAAy-115" value="&amp;nbsp;Платформа стремится интегрироваться с другими популярными путешественническими платформами, такими как&lt;br&gt;системы бронирования отелей и авиабилетов" style="shape=note;size=20;whiteSpace=wrap;html=1;" parent="1" vertex="1">
          <mxGeometry x="2353" y="60" width="485" height="100" as="geometry" />
        </mxCell>
        <mxCell id="wzz0exqY3XDibm87eAAy-116" value="&amp;lt;&amp;lt;UI&amp;gt;&amp;gt;&lt;br&gt;TravelerInterface" style="swimlane;fontStyle=1;align=center;verticalAlign=top;childLayout=stackLayout;horizontal=1;startSize=40;horizontalStack=0;resizeParent=1;resizeParentMax=0;resizeLast=0;collapsible=1;marginBottom=0;whiteSpace=wrap;html=1;" parent="1" vertex="1">
          <mxGeometry x="2260" y="-660" width="346" height="160" as="geometry" />
        </mxCell>
        <mxCell id="wzz0exqY3XDibm87eAAy-117" value="- user: User&lt;br&gt;- user_controller: UserController&amp;nbsp;&lt;br style=&quot;border-color: var(--border-color);&quot;&gt;- reservation_controller: ReservationController" style="text;strokeColor=none;fillColor=none;align=left;verticalAlign=top;spacingLeft=4;spacingRight=4;overflow=hidden;rotatable=0;points=[[0,0.5],[1,0.5]];portConstraint=eastwest;whiteSpace=wrap;html=1;" parent="wzz0exqY3XDibm87eAAy-116" vertex="1">
          <mxGeometry y="40" width="346" height="60" as="geometry" />
        </mxCell>
        <mxCell id="wzz0exqY3XDibm87eAAy-118" value="" style="line;strokeWidth=1;fillColor=none;align=left;verticalAlign=middle;spacingTop=-1;spacingLeft=3;spacingRight=3;rotatable=0;labelPosition=right;points=[];portConstraint=eastwest;strokeColor=inherit;" parent="wzz0exqY3XDibm87eAAy-116" vertex="1">
          <mxGeometry y="100" width="346" height="8" as="geometry" />
        </mxCell>
        <mxCell id="wzz0exqY3XDibm87eAAy-119" value="+ start_session(): None&lt;br style=&quot;border-color: var(--border-color); background-color: rgb(255, 255, 255);&quot;&gt;&lt;span style=&quot;background-color: rgb(255, 255, 255);&quot;&gt;+ end_session(): None&lt;/span&gt;" style="text;strokeColor=none;fillColor=none;align=left;verticalAlign=top;spacingLeft=4;spacingRight=4;overflow=hidden;rotatable=0;points=[[0,0.5],[1,0.5]];portConstraint=eastwest;whiteSpace=wrap;html=1;" parent="wzz0exqY3XDibm87eAAy-116" vertex="1">
          <mxGeometry y="108" width="346" height="52" as="geometry" />
        </mxCell>
        <mxCell id="wzz0exqY3XDibm87eAAy-120" value="&amp;lt;&amp;lt;main&amp;gt;&amp;gt;&lt;br&gt;&amp;lt;&amp;lt;UI&amp;gt;&amp;gt;&lt;br&gt;System" style="swimlane;fontStyle=1;align=center;verticalAlign=top;childLayout=stackLayout;horizontal=1;startSize=50;horizontalStack=0;resizeParent=1;resizeParentMax=0;resizeLast=0;collapsible=1;marginBottom=0;whiteSpace=wrap;html=1;" parent="1" vertex="1">
          <mxGeometry x="2347" y="-940" width="160" height="84" as="geometry" />
        </mxCell>
        <mxCell id="wzz0exqY3XDibm87eAAy-121" value="- session: Session" style="text;strokeColor=none;fillColor=none;align=left;verticalAlign=top;spacingLeft=4;spacingRight=4;overflow=hidden;rotatable=0;points=[[0,0.5],[1,0.5]];portConstraint=eastwest;whiteSpace=wrap;html=1;" parent="wzz0exqY3XDibm87eAAy-120" vertex="1">
          <mxGeometry y="50" width="160" height="26" as="geometry" />
        </mxCell>
        <mxCell id="wzz0exqY3XDibm87eAAy-122" value="" style="line;strokeWidth=1;fillColor=none;align=left;verticalAlign=middle;spacingTop=-1;spacingLeft=3;spacingRight=3;rotatable=0;labelPosition=right;points=[];portConstraint=eastwest;strokeColor=inherit;" parent="wzz0exqY3XDibm87eAAy-120" vertex="1">
          <mxGeometry y="76" width="160" height="8" as="geometry" />
        </mxCell>
        <mxCell id="wzz0exqY3XDibm87eAAy-123" value="&amp;lt;&amp;lt;interface&amp;gt;&amp;gt;&lt;br&gt;Session" style="swimlane;fontStyle=1;align=center;verticalAlign=top;childLayout=stackLayout;horizontal=1;startSize=44;horizontalStack=0;resizeParent=1;resizeParentMax=0;resizeLast=0;collapsible=1;marginBottom=0;whiteSpace=wrap;html=1;" parent="1" vertex="1">
          <mxGeometry x="2353" y="-810" width="160" height="90" as="geometry" />
        </mxCell>
        <mxCell id="wzz0exqY3XDibm87eAAy-124" value="" style="line;strokeWidth=1;fillColor=none;align=left;verticalAlign=middle;spacingTop=-1;spacingLeft=3;spacingRight=3;rotatable=0;labelPosition=right;points=[];portConstraint=eastwest;strokeColor=inherit;" parent="wzz0exqY3XDibm87eAAy-123" vertex="1">
          <mxGeometry y="44" width="160" height="8" as="geometry" />
        </mxCell>
        <mxCell id="wzz0exqY3XDibm87eAAy-125" value="+ start_session(): None&lt;br&gt;+ end_session(): None" style="text;strokeColor=none;fillColor=none;align=left;verticalAlign=top;spacingLeft=4;spacingRight=4;overflow=hidden;rotatable=0;points=[[0,0.5],[1,0.5]];portConstraint=eastwest;whiteSpace=wrap;html=1;" parent="wzz0exqY3XDibm87eAAy-123" vertex="1">
          <mxGeometry y="52" width="160" height="38" as="geometry" />
        </mxCell>
        <mxCell id="wzz0exqY3XDibm87eAAy-126" value="&amp;lt;&amp;lt;control&amp;gt;&amp;gt;&lt;br&gt;ReservationController" style="swimlane;fontStyle=1;align=center;verticalAlign=top;childLayout=stackLayout;horizontal=1;startSize=40;horizontalStack=0;resizeParent=1;resizeParentMax=0;resizeLast=0;collapsible=1;marginBottom=0;whiteSpace=wrap;html=1;" parent="1" vertex="1">
          <mxGeometry x="2248" y="-440" width="370" height="236" as="geometry" />
        </mxCell>
        <mxCell id="wzz0exqY3XDibm87eAAy-127" value="- reservation_dal: ReservationDAL&lt;br&gt;- hotel_reservation_service: HotelReservationService&lt;br style=&quot;border-color: var(--border-color);&quot;&gt;- plane_reservation_service: PlaneReservationService" style="text;strokeColor=none;fillColor=none;align=left;verticalAlign=top;spacingLeft=4;spacingRight=4;overflow=hidden;rotatable=0;points=[[0,0.5],[1,0.5]];portConstraint=eastwest;whiteSpace=wrap;html=1;" parent="wzz0exqY3XDibm87eAAy-126" vertex="1">
          <mxGeometry y="40" width="370" height="110" as="geometry" />
        </mxCell>
        <mxCell id="wzz0exqY3XDibm87eAAy-128" value="" style="line;strokeWidth=1;fillColor=none;align=left;verticalAlign=middle;spacingTop=-1;spacingLeft=3;spacingRight=3;rotatable=0;labelPosition=right;points=[];portConstraint=eastwest;strokeColor=inherit;" parent="wzz0exqY3XDibm87eAAy-126" vertex="1">
          <mxGeometry y="150" width="370" height="8" as="geometry" />
        </mxCell>
        <mxCell id="wzz0exqY3XDibm87eAAy-129" value="&lt;div&gt;+ add_reservation(user: User, reservation: Reservation): None&lt;/div&gt;&lt;div&gt;+ get_reservation(user: User): Reservation&lt;/div&gt;&lt;div&gt;+ patch_reservation(user: User, reservation: Reservation): None&lt;/div&gt;&lt;div&gt;+ delete_reservation(user: User, reservation_id: int): None&lt;/div&gt;" style="text;strokeColor=none;fillColor=none;align=left;verticalAlign=top;spacingLeft=4;spacingRight=4;overflow=hidden;rotatable=0;points=[[0,0.5],[1,0.5]];portConstraint=eastwest;whiteSpace=wrap;html=1;" parent="wzz0exqY3XDibm87eAAy-126" vertex="1">
          <mxGeometry y="158" width="370" height="78" as="geometry" />
        </mxCell>
        <mxCell id="wzz0exqY3XDibm87eAAy-130" value="&amp;lt;&amp;lt;interface&amp;gt;&amp;gt;&lt;br&gt;HotelReservationService" style="swimlane;fontStyle=1;align=center;verticalAlign=top;childLayout=stackLayout;horizontal=1;startSize=40;horizontalStack=0;resizeParent=1;resizeParentMax=0;resizeLast=0;collapsible=1;marginBottom=0;whiteSpace=wrap;html=1;" parent="1" vertex="1">
          <mxGeometry x="2740" y="-450" width="430" height="100" as="geometry" />
        </mxCell>
        <mxCell id="wzz0exqY3XDibm87eAAy-132" value="" style="line;strokeWidth=1;fillColor=none;align=left;verticalAlign=middle;spacingTop=-1;spacingLeft=3;spacingRight=3;rotatable=0;labelPosition=right;points=[];portConstraint=eastwest;strokeColor=inherit;" parent="wzz0exqY3XDibm87eAAy-130" vertex="1">
          <mxGeometry y="40" width="430" height="8" as="geometry" />
        </mxCell>
        <mxCell id="wzz0exqY3XDibm87eAAy-133" value="+ add_hotel_reservation(request: AddHotelReservationnDTO): None&lt;br&gt;+ remove_hotel_reservation(request: RemoveHotelReservationDTO): None" style="text;strokeColor=none;fillColor=none;align=left;verticalAlign=top;spacingLeft=4;spacingRight=4;overflow=hidden;rotatable=0;points=[[0,0.5],[1,0.5]];portConstraint=eastwest;whiteSpace=wrap;html=1;" parent="wzz0exqY3XDibm87eAAy-130" vertex="1">
          <mxGeometry y="48" width="430" height="52" as="geometry" />
        </mxCell>
        <mxCell id="wzz0exqY3XDibm87eAAy-140" value="&amp;lt;&amp;lt;interface&amp;gt;&amp;gt;&lt;br&gt;PlaneReservationService" style="swimlane;fontStyle=1;align=center;verticalAlign=top;childLayout=stackLayout;horizontal=1;startSize=40;horizontalStack=0;resizeParent=1;resizeParentMax=0;resizeLast=0;collapsible=1;marginBottom=0;whiteSpace=wrap;html=1;" parent="1" vertex="1">
          <mxGeometry x="2740" y="-320" width="430" height="100" as="geometry" />
        </mxCell>
        <mxCell id="wzz0exqY3XDibm87eAAy-141" value="" style="line;strokeWidth=1;fillColor=none;align=left;verticalAlign=middle;spacingTop=-1;spacingLeft=3;spacingRight=3;rotatable=0;labelPosition=right;points=[];portConstraint=eastwest;strokeColor=inherit;" parent="wzz0exqY3XDibm87eAAy-140" vertex="1">
          <mxGeometry y="40" width="430" height="8" as="geometry" />
        </mxCell>
        <mxCell id="wzz0exqY3XDibm87eAAy-142" value="+ add_plane_reservation(request: AddPlaneReservationnDTO): None&lt;br&gt;+ remove_plane_reservation(request: RemovePlaneReservationDTO): None" style="text;strokeColor=none;fillColor=none;align=left;verticalAlign=top;spacingLeft=4;spacingRight=4;overflow=hidden;rotatable=0;points=[[0,0.5],[1,0.5]];portConstraint=eastwest;whiteSpace=wrap;html=1;" parent="wzz0exqY3XDibm87eAAy-140" vertex="1">
          <mxGeometry y="48" width="430" height="52" as="geometry" />
        </mxCell>
        <mxCell id="wzz0exqY3XDibm87eAAy-144" value="" style="endArrow=block;dashed=1;endFill=0;endSize=12;html=1;rounded=0;exitX=0.5;exitY=0;exitDx=0;exitDy=0;" parent="1" source="wzz0exqY3XDibm87eAAy-116" target="wzz0exqY3XDibm87eAAy-123" edge="1">
          <mxGeometry width="160" relative="1" as="geometry">
            <mxPoint x="2210" y="-460" as="sourcePoint" />
            <mxPoint x="2040" y="-545" as="targetPoint" />
          </mxGeometry>
        </mxCell>
        <mxCell id="wzz0exqY3XDibm87eAAy-145" value="1" style="endArrow=open;html=1;endSize=12;startArrow=diamondThin;startSize=14;startFill=1;edgeStyle=orthogonalEdgeStyle;align=left;verticalAlign=bottom;rounded=0;" parent="1" edge="1">
          <mxGeometry x="0.7955" y="-6" relative="1" as="geometry">
            <mxPoint x="2430" y="-856" as="sourcePoint" />
            <mxPoint x="2430" y="-810" as="targetPoint" />
            <mxPoint as="offset" />
            <Array as="points">
              <mxPoint x="2430" y="-810" />
            </Array>
          </mxGeometry>
        </mxCell>
        <mxCell id="wzz0exqY3XDibm87eAAy-146" value="1" style="endArrow=open;html=1;endSize=12;startArrow=diamondThin;startSize=14;startFill=1;edgeStyle=orthogonalEdgeStyle;align=left;verticalAlign=bottom;rounded=0;exitX=0.497;exitY=1.044;exitDx=0;exitDy=0;exitPerimeter=0;" parent="1" source="wzz0exqY3XDibm87eAAy-119" target="wzz0exqY3XDibm87eAAy-126" edge="1">
          <mxGeometry x="0.7955" y="-6" relative="1" as="geometry">
            <mxPoint x="2440" y="-846" as="sourcePoint" />
            <mxPoint x="2440" y="-800" as="targetPoint" />
            <mxPoint as="offset" />
            <Array as="points">
              <mxPoint x="2432" y="-490" />
              <mxPoint x="2433" y="-490" />
            </Array>
          </mxGeometry>
        </mxCell>
        <mxCell id="wzz0exqY3XDibm87eAAy-147" value="1" style="endArrow=open;html=1;endSize=12;startArrow=diamondThin;startSize=14;startFill=1;edgeStyle=orthogonalEdgeStyle;align=left;verticalAlign=bottom;rounded=0;" parent="1" source="wzz0exqY3XDibm87eAAy-127" target="wzz0exqY3XDibm87eAAy-130" edge="1">
          <mxGeometry x="0.7955" y="-6" relative="1" as="geometry">
            <mxPoint x="2710" y="-540" as="sourcePoint" />
            <mxPoint x="2711" y="-482" as="targetPoint" />
            <mxPoint as="offset" />
            <Array as="points">
              <mxPoint x="2670" y="-400" />
              <mxPoint x="2670" y="-400" />
            </Array>
          </mxGeometry>
        </mxCell>
        <mxCell id="wzz0exqY3XDibm87eAAy-148" value="1" style="endArrow=open;html=1;endSize=12;startArrow=diamondThin;startSize=14;startFill=1;edgeStyle=orthogonalEdgeStyle;align=left;verticalAlign=bottom;rounded=0;" parent="1" source="wzz0exqY3XDibm87eAAy-127" target="wzz0exqY3XDibm87eAAy-142" edge="1">
          <mxGeometry x="0.7955" y="-6" relative="1" as="geometry">
            <mxPoint x="2628" y="-390" as="sourcePoint" />
            <mxPoint x="2750" y="-390" as="targetPoint" />
            <mxPoint as="offset" />
            <Array as="points" />
          </mxGeometry>
        </mxCell>
        <mxCell id="wzz0exqY3XDibm87eAAy-149" value="" style="endArrow=none;dashed=1;html=1;rounded=0;exitX=0.523;exitY=0.016;exitDx=0;exitDy=0;exitPerimeter=0;" parent="1" source="wzz0exqY3XDibm87eAAy-115" target="wzz0exqY3XDibm87eAAy-113" edge="1">
          <mxGeometry width="50" height="50" relative="1" as="geometry">
            <mxPoint x="2170" y="150" as="sourcePoint" />
            <mxPoint x="2171" y="60" as="targetPoint" />
          </mxGeometry>
        </mxCell>
        <mxCell id="wzz0exqY3XDibm87eAAy-150" value="" style="rounded=0;whiteSpace=wrap;html=1;" parent="1" vertex="1">
          <mxGeometry x="2000" y="250" width="1270" height="1000" as="geometry" />
        </mxCell>
        <mxCell id="wzz0exqY3XDibm87eAAy-151" value="&lt;h1&gt;Диаграмма классов направления развития&amp;nbsp;&lt;/h1&gt;&lt;p&gt;&lt;br&gt;&lt;/p&gt;" style="text;html=1;strokeColor=none;fillColor=none;spacing=5;spacingTop=-20;whiteSpace=wrap;overflow=hidden;rounded=0;movable=1;resizable=1;rotatable=1;deletable=1;editable=1;locked=0;connectable=1;" parent="1" vertex="1">
          <mxGeometry x="2020" y="270" width="559" height="40" as="geometry" />
        </mxCell>
        <mxCell id="wzz0exqY3XDibm87eAAy-152" value="Платформа может развивать системы&lt;br/&gt;рекомендаций и персонализации, основанные на предпочтениях и интересах пользователей.&amp;nbsp;" style="shape=note;size=20;whiteSpace=wrap;html=1;" parent="1" vertex="1">
          <mxGeometry x="2383" y="1340" width="485" height="100" as="geometry" />
        </mxCell>
        <mxCell id="wzz0exqY3XDibm87eAAy-153" value="&amp;lt;&amp;lt;UI&amp;gt;&amp;gt;&lt;br&gt;TravelerInterface" style="swimlane;fontStyle=1;align=center;verticalAlign=top;childLayout=stackLayout;horizontal=1;startSize=40;horizontalStack=0;resizeParent=1;resizeParentMax=0;resizeLast=0;collapsible=1;marginBottom=0;whiteSpace=wrap;html=1;" parent="1" vertex="1">
          <mxGeometry x="2290" y="620" width="346" height="160" as="geometry" />
        </mxCell>
        <mxCell id="wzz0exqY3XDibm87eAAy-154" value="- user: User&lt;br&gt;- user_controller: UserController&amp;nbsp;&lt;br style=&quot;border-color: var(--border-color);&quot;&gt;- reservation_controller: ReservationController" style="text;strokeColor=none;fillColor=none;align=left;verticalAlign=top;spacingLeft=4;spacingRight=4;overflow=hidden;rotatable=0;points=[[0,0.5],[1,0.5]];portConstraint=eastwest;whiteSpace=wrap;html=1;" parent="wzz0exqY3XDibm87eAAy-153" vertex="1">
          <mxGeometry y="40" width="346" height="60" as="geometry" />
        </mxCell>
        <mxCell id="wzz0exqY3XDibm87eAAy-155" value="" style="line;strokeWidth=1;fillColor=none;align=left;verticalAlign=middle;spacingTop=-1;spacingLeft=3;spacingRight=3;rotatable=0;labelPosition=right;points=[];portConstraint=eastwest;strokeColor=inherit;" parent="wzz0exqY3XDibm87eAAy-153" vertex="1">
          <mxGeometry y="100" width="346" height="8" as="geometry" />
        </mxCell>
        <mxCell id="wzz0exqY3XDibm87eAAy-156" value="+ start_session(): None&lt;br style=&quot;border-color: var(--border-color); background-color: rgb(255, 255, 255);&quot;&gt;&lt;span style=&quot;background-color: rgb(255, 255, 255);&quot;&gt;+ end_session(): None&lt;/span&gt;" style="text;strokeColor=none;fillColor=none;align=left;verticalAlign=top;spacingLeft=4;spacingRight=4;overflow=hidden;rotatable=0;points=[[0,0.5],[1,0.5]];portConstraint=eastwest;whiteSpace=wrap;html=1;" parent="wzz0exqY3XDibm87eAAy-153" vertex="1">
          <mxGeometry y="108" width="346" height="52" as="geometry" />
        </mxCell>
        <mxCell id="wzz0exqY3XDibm87eAAy-157" value="&amp;lt;&amp;lt;main&amp;gt;&amp;gt;&lt;br&gt;&amp;lt;&amp;lt;UI&amp;gt;&amp;gt;&lt;br&gt;System" style="swimlane;fontStyle=1;align=center;verticalAlign=top;childLayout=stackLayout;horizontal=1;startSize=50;horizontalStack=0;resizeParent=1;resizeParentMax=0;resizeLast=0;collapsible=1;marginBottom=0;whiteSpace=wrap;html=1;" parent="1" vertex="1">
          <mxGeometry x="2377" y="340" width="160" height="84" as="geometry" />
        </mxCell>
        <mxCell id="wzz0exqY3XDibm87eAAy-158" value="- session: Session" style="text;strokeColor=none;fillColor=none;align=left;verticalAlign=top;spacingLeft=4;spacingRight=4;overflow=hidden;rotatable=0;points=[[0,0.5],[1,0.5]];portConstraint=eastwest;whiteSpace=wrap;html=1;" parent="wzz0exqY3XDibm87eAAy-157" vertex="1">
          <mxGeometry y="50" width="160" height="26" as="geometry" />
        </mxCell>
        <mxCell id="wzz0exqY3XDibm87eAAy-159" value="" style="line;strokeWidth=1;fillColor=none;align=left;verticalAlign=middle;spacingTop=-1;spacingLeft=3;spacingRight=3;rotatable=0;labelPosition=right;points=[];portConstraint=eastwest;strokeColor=inherit;" parent="wzz0exqY3XDibm87eAAy-157" vertex="1">
          <mxGeometry y="76" width="160" height="8" as="geometry" />
        </mxCell>
        <mxCell id="wzz0exqY3XDibm87eAAy-160" value="&amp;lt;&amp;lt;interface&amp;gt;&amp;gt;&lt;br&gt;Session" style="swimlane;fontStyle=1;align=center;verticalAlign=top;childLayout=stackLayout;horizontal=1;startSize=44;horizontalStack=0;resizeParent=1;resizeParentMax=0;resizeLast=0;collapsible=1;marginBottom=0;whiteSpace=wrap;html=1;" parent="1" vertex="1">
          <mxGeometry x="2383" y="470" width="160" height="90" as="geometry" />
        </mxCell>
        <mxCell id="wzz0exqY3XDibm87eAAy-161" value="" style="line;strokeWidth=1;fillColor=none;align=left;verticalAlign=middle;spacingTop=-1;spacingLeft=3;spacingRight=3;rotatable=0;labelPosition=right;points=[];portConstraint=eastwest;strokeColor=inherit;" parent="wzz0exqY3XDibm87eAAy-160" vertex="1">
          <mxGeometry y="44" width="160" height="8" as="geometry" />
        </mxCell>
        <mxCell id="wzz0exqY3XDibm87eAAy-162" value="+ start_session(): None&lt;br&gt;+ end_session(): None" style="text;strokeColor=none;fillColor=none;align=left;verticalAlign=top;spacingLeft=4;spacingRight=4;overflow=hidden;rotatable=0;points=[[0,0.5],[1,0.5]];portConstraint=eastwest;whiteSpace=wrap;html=1;" parent="wzz0exqY3XDibm87eAAy-160" vertex="1">
          <mxGeometry y="52" width="160" height="38" as="geometry" />
        </mxCell>
        <mxCell id="wzz0exqY3XDibm87eAAy-163" value="&amp;lt;&amp;lt;control&amp;gt;&amp;gt;&lt;br&gt;ReservationController" style="swimlane;fontStyle=1;align=center;verticalAlign=top;childLayout=stackLayout;horizontal=1;startSize=40;horizontalStack=0;resizeParent=1;resizeParentMax=0;resizeLast=0;collapsible=1;marginBottom=0;whiteSpace=wrap;html=1;" parent="1" vertex="1">
          <mxGeometry x="2278" y="840" width="370" height="200" as="geometry" />
        </mxCell>
        <mxCell id="wzz0exqY3XDibm87eAAy-164" value="- recomendation_service:&amp;nbsp;RecomendationService&lt;br&gt;- personalization_service:&amp;nbsp;PersonalizationService" style="text;strokeColor=none;fillColor=none;align=left;verticalAlign=top;spacingLeft=4;spacingRight=4;overflow=hidden;rotatable=0;points=[[0,0.5],[1,0.5]];portConstraint=eastwest;whiteSpace=wrap;html=1;" parent="wzz0exqY3XDibm87eAAy-163" vertex="1">
          <mxGeometry y="40" width="370" height="50" as="geometry" />
        </mxCell>
        <mxCell id="wzz0exqY3XDibm87eAAy-165" value="" style="line;strokeWidth=1;fillColor=none;align=left;verticalAlign=middle;spacingTop=-1;spacingLeft=3;spacingRight=3;rotatable=0;labelPosition=right;points=[];portConstraint=eastwest;strokeColor=inherit;" parent="wzz0exqY3XDibm87eAAy-163" vertex="1">
          <mxGeometry y="90" width="370" height="8" as="geometry" />
        </mxCell>
        <mxCell id="wzz0exqY3XDibm87eAAy-166" value="&lt;div&gt;+ add_reservation(user: User, reservation: Reservation): None&lt;/div&gt;&lt;div&gt;+ get_recommended_excursions(): List[Excursion]&lt;/div&gt;&lt;div&gt;+ get_reservation(user: User): Reservation&lt;/div&gt;&lt;div&gt;+ patch_reservation(user: User, reservation: Reservation): None&lt;/div&gt;&lt;div&gt;+ delete_reservation(user: User, reservation_id: int): None&lt;/div&gt;" style="text;strokeColor=none;fillColor=none;align=left;verticalAlign=top;spacingLeft=4;spacingRight=4;overflow=hidden;rotatable=0;points=[[0,0.5],[1,0.5]];portConstraint=eastwest;whiteSpace=wrap;html=1;" parent="wzz0exqY3XDibm87eAAy-163" vertex="1">
          <mxGeometry y="98" width="370" height="102" as="geometry" />
        </mxCell>
        <mxCell id="wzz0exqY3XDibm87eAAy-167" value="&amp;lt;&amp;lt;interface&amp;gt;&amp;gt;&lt;br&gt;RecomendationService" style="swimlane;fontStyle=1;align=center;verticalAlign=top;childLayout=stackLayout;horizontal=1;startSize=40;horizontalStack=0;resizeParent=1;resizeParentMax=0;resizeLast=0;collapsible=1;marginBottom=0;whiteSpace=wrap;html=1;" parent="1" vertex="1">
          <mxGeometry x="2770" y="830" width="430" height="100" as="geometry" />
        </mxCell>
        <mxCell id="wzz0exqY3XDibm87eAAy-168" value="" style="line;strokeWidth=1;fillColor=none;align=left;verticalAlign=middle;spacingTop=-1;spacingLeft=3;spacingRight=3;rotatable=0;labelPosition=right;points=[];portConstraint=eastwest;strokeColor=inherit;" parent="wzz0exqY3XDibm87eAAy-167" vertex="1">
          <mxGeometry y="40" width="430" height="8" as="geometry" />
        </mxCell>
        <mxCell id="wzz0exqY3XDibm87eAAy-169" value="+ add_hotel_reservation(request: AddHotelReservationnDTO): None&lt;br&gt;+ remove_hotel_reservation(request: RemoveHotelReservationDTO): None" style="text;strokeColor=none;fillColor=none;align=left;verticalAlign=top;spacingLeft=4;spacingRight=4;overflow=hidden;rotatable=0;points=[[0,0.5],[1,0.5]];portConstraint=eastwest;whiteSpace=wrap;html=1;" parent="wzz0exqY3XDibm87eAAy-167" vertex="1">
          <mxGeometry y="48" width="430" height="52" as="geometry" />
        </mxCell>
        <mxCell id="wzz0exqY3XDibm87eAAy-170" value="&amp;lt;&amp;lt;interface&amp;gt;&amp;gt;&lt;br&gt;PersonalizationService" style="swimlane;fontStyle=1;align=center;verticalAlign=top;childLayout=stackLayout;horizontal=1;startSize=40;horizontalStack=0;resizeParent=1;resizeParentMax=0;resizeLast=0;collapsible=1;marginBottom=0;whiteSpace=wrap;html=1;" parent="1" vertex="1">
          <mxGeometry x="2770" y="960" width="430" height="100" as="geometry" />
        </mxCell>
        <mxCell id="wzz0exqY3XDibm87eAAy-171" value="" style="line;strokeWidth=1;fillColor=none;align=left;verticalAlign=middle;spacingTop=-1;spacingLeft=3;spacingRight=3;rotatable=0;labelPosition=right;points=[];portConstraint=eastwest;strokeColor=inherit;" parent="wzz0exqY3XDibm87eAAy-170" vertex="1">
          <mxGeometry y="40" width="430" height="8" as="geometry" />
        </mxCell>
        <mxCell id="wzz0exqY3XDibm87eAAy-172" value="+ add_interesting_excursion(request: AddInterestingExcursionDTO): None&lt;br&gt;+ remove_interesting_excursion(request: RemoveInterestingExcursionDTO): None" style="text;strokeColor=none;fillColor=none;align=left;verticalAlign=top;spacingLeft=4;spacingRight=4;overflow=hidden;rotatable=0;points=[[0,0.5],[1,0.5]];portConstraint=eastwest;whiteSpace=wrap;html=1;" parent="wzz0exqY3XDibm87eAAy-170" vertex="1">
          <mxGeometry y="48" width="430" height="52" as="geometry" />
        </mxCell>
        <mxCell id="wzz0exqY3XDibm87eAAy-173" value="" style="endArrow=block;dashed=1;endFill=0;endSize=12;html=1;rounded=0;exitX=0.5;exitY=0;exitDx=0;exitDy=0;" parent="1" source="wzz0exqY3XDibm87eAAy-153" target="wzz0exqY3XDibm87eAAy-160" edge="1">
          <mxGeometry width="160" relative="1" as="geometry">
            <mxPoint x="2240" y="820" as="sourcePoint" />
            <mxPoint x="2070" y="735" as="targetPoint" />
          </mxGeometry>
        </mxCell>
        <mxCell id="wzz0exqY3XDibm87eAAy-174" value="1" style="endArrow=open;html=1;endSize=12;startArrow=diamondThin;startSize=14;startFill=1;edgeStyle=orthogonalEdgeStyle;align=left;verticalAlign=bottom;rounded=0;" parent="1" edge="1">
          <mxGeometry x="0.7955" y="-6" relative="1" as="geometry">
            <mxPoint x="2460" y="424" as="sourcePoint" />
            <mxPoint x="2460" y="470" as="targetPoint" />
            <mxPoint as="offset" />
            <Array as="points">
              <mxPoint x="2460" y="470" />
            </Array>
          </mxGeometry>
        </mxCell>
        <mxCell id="wzz0exqY3XDibm87eAAy-175" value="1" style="endArrow=open;html=1;endSize=12;startArrow=diamondThin;startSize=14;startFill=1;edgeStyle=orthogonalEdgeStyle;align=left;verticalAlign=bottom;rounded=0;exitX=0.497;exitY=1.044;exitDx=0;exitDy=0;exitPerimeter=0;" parent="1" source="wzz0exqY3XDibm87eAAy-156" target="wzz0exqY3XDibm87eAAy-163" edge="1">
          <mxGeometry x="0.7955" y="-6" relative="1" as="geometry">
            <mxPoint x="2470" y="434" as="sourcePoint" />
            <mxPoint x="2470" y="480" as="targetPoint" />
            <mxPoint as="offset" />
            <Array as="points">
              <mxPoint x="2462" y="790" />
              <mxPoint x="2463" y="790" />
            </Array>
          </mxGeometry>
        </mxCell>
        <mxCell id="wzz0exqY3XDibm87eAAy-176" value="1" style="endArrow=open;html=1;endSize=12;startArrow=diamondThin;startSize=14;startFill=1;edgeStyle=orthogonalEdgeStyle;align=left;verticalAlign=bottom;rounded=0;" parent="1" source="wzz0exqY3XDibm87eAAy-164" target="wzz0exqY3XDibm87eAAy-167" edge="1">
          <mxGeometry x="0.7955" y="-6" relative="1" as="geometry">
            <mxPoint x="2740" y="740" as="sourcePoint" />
            <mxPoint x="2741" y="798" as="targetPoint" />
            <mxPoint as="offset" />
            <Array as="points">
              <mxPoint x="2700" y="880" />
              <mxPoint x="2700" y="880" />
            </Array>
          </mxGeometry>
        </mxCell>
        <mxCell id="wzz0exqY3XDibm87eAAy-177" value="1" style="endArrow=open;html=1;endSize=12;startArrow=diamondThin;startSize=14;startFill=1;edgeStyle=orthogonalEdgeStyle;align=left;verticalAlign=bottom;rounded=0;" parent="1" source="wzz0exqY3XDibm87eAAy-164" target="wzz0exqY3XDibm87eAAy-172" edge="1">
          <mxGeometry x="0.7955" y="-6" relative="1" as="geometry">
            <mxPoint x="2658" y="890" as="sourcePoint" />
            <mxPoint x="2780" y="890" as="targetPoint" />
            <mxPoint as="offset" />
            <Array as="points" />
          </mxGeometry>
        </mxCell>
        <mxCell id="wzz0exqY3XDibm87eAAy-178" value="" style="endArrow=none;dashed=1;html=1;rounded=0;exitX=0.523;exitY=0.016;exitDx=0;exitDy=0;exitPerimeter=0;" parent="1" source="wzz0exqY3XDibm87eAAy-152" target="wzz0exqY3XDibm87eAAy-150" edge="1">
          <mxGeometry width="50" height="50" relative="1" as="geometry">
            <mxPoint x="2200" y="1430" as="sourcePoint" />
            <mxPoint x="2201" y="1340" as="targetPoint" />
          </mxGeometry>
        </mxCell>
      </root>
    </mxGraphModel>
  </diagram>
</mxfile>
